<?xml version="1.0" encoding="UTF-8" standalone="no"?>
<!-- Created with Inkscape (http://www.inkscape.org/) -->

<svg
   width="152.936mm"
   height="152.936mm"
   viewBox="0 -21.684 152.936 152.93602"
   version="1.1"
   id="svg90"
   inkscape:version="1.2.1 (9c6d41e410, 2022-07-14)"
   sodipodi:docname="spreadboard-logo.svg"
   inkscape:export-filename="spreadboard-logo.png"
   inkscape:export-xdpi="96"
   inkscape:export-ydpi="96"
   xmlns:inkscape="http://www.inkscape.org/namespaces/inkscape"
   xmlns:sodipodi="http://sodipodi.sourceforge.net/DTD/sodipodi-0.dtd"
   xmlns="http://www.w3.org/2000/svg"
   xmlns:svg="http://www.w3.org/2000/svg">
  <sodipodi:namedview
     id="namedview92"
     pagecolor="#ffffff"
     bordercolor="#000000"
     borderopacity="0.25"
     inkscape:showpageshadow="2"
     inkscape:pageopacity="0.0"
     inkscape:pagecheckerboard="0"
     inkscape:deskcolor="#d1d1d1"
     inkscape:document-units="mm"
     showgrid="false"
     showguides="false"
     inkscape:zoom="1.066046"
     inkscape:cx="77.388782"
     inkscape:cy="281.41375"
     inkscape:window-width="1920"
     inkscape:window-height="1011"
     inkscape:window-x="0"
     inkscape:window-y="0"
     inkscape:window-maximized="1"
     inkscape:current-layer="layer4" />
  <defs
     id="defs87">
    <filter
       inkscape:collect="always"
       style="color-interpolation-filters:sRGB"
       id="filter25431"
       x="-0.0091066127"
       y="-0.0060094497"
       width="1.0197508"
       height="1.013335">
      <feGaussianBlur
         inkscape:collect="always"
         stdDeviation="0.019206591"
         id="feGaussianBlur25433" />
    </filter>
    <filter
       inkscape:collect="always"
       style="color-interpolation-filters:sRGB"
       id="filter25561"
       x="-0.012634154"
       y="-0.0088377381"
       width="1.0240207"
       height="1.0168027">
      <feGaussianBlur
         inkscape:collect="always"
         stdDeviation="0.080106855"
         id="feGaussianBlur25563" />
    </filter>
  </defs>
  <g
     inkscape:label="Ebene 1"
     inkscape:groupmode="layer"
     id="layer1"
     transform="translate(-23.337998,-64.317039)">
    <path
       style="fill:#396386;fill-opacity:1;stroke:#341835;stroke-width:0.97478;stroke-dasharray:none;stroke-opacity:1;paint-order:fill markers stroke"
       d="m 35.359589,173.17678 c -1.396728,-0.29992 -2.158484,-0.56665 -3.586688,-1.25597 -4.121088,-1.98902 -7.077125,-5.91792 -7.791963,-10.35637 -0.141989,-0.88162 -0.17966,-11.83255 -0.141336,-41.08643 l 0.05226,-39.884434 0.391685,-1.222224 c 1.602677,-5.001042 5.415515,-8.57196 10.566328,-9.895906 l 1.444195,-0.371213 h 63.459794 c 60.107056,0 63.577116,-2.481885 64.684186,-1.923315 4.88207,2.46323 9.53208,7.323295 10.96756,12.524323 l 0.38107,1.380735 v 40.212684 40.21272 l -0.37264,1.31306 c -1.47907,5.21188 -5.49636,9.03173 -10.78712,10.25701 -1.39946,0.3241 -2.03319,0.32714 -64.873056,0.31163 -49.332562,-0.0122 -63.667827,-0.0603 -64.394275,-0.2163 z"
       id="path426"
       sodipodi:nodetypes="sssscsscssscccssss"
       inkscape:label="Kontur" />
    <path
       style="fill:#58baea;fill-opacity:1;stroke:#341835;stroke-width:0.947168;stroke-dasharray:none;stroke-opacity:1;paint-order:fill markers stroke"
       d="m 35.099479,165.19356 c -1.366919,-0.28934 -2.112417,-0.54667 -3.510141,-1.21167 -4.033136,-1.91889 -6.926084,-5.70925 -7.625666,-9.9912 -0.138959,-0.85054 -0.175825,-11.41532 -0.138319,-39.63768 l 0.05115,-38.478056 0.383327,-1.179125 c 1.568473,-4.8247 5.299936,-8.269705 10.340818,-9.546967 l 1.413374,-0.358124 h 62.105426 c 58.824242,0 62.171312,0.0148 63.352512,0.280148 5.25221,1.179861 9.2798,4.929422 10.68467,9.947056 l 0.37293,1.332049 v 38.794749 38.79476 l -0.36469,1.26676 c -1.4475,5.0281 -5.37906,8.71327 -10.5569,9.89533 -1.36959,0.31268 -1.98979,0.31561 -63.488522,0.30065 -48.279694,-0.0117 -62.309018,-0.0582 -63.019963,-0.20868 z"
       id="path426-6"
       inkscape:label="Fläche" />
  </g>
  <g
     inkscape:groupmode="layer"
     id="layer2"
     inkscape:label="Löcher"
     style="display:inline"
     transform="translate(-23.337998,-64.317039)">
    <path
       style="display:inline;fill:#396386;fill-opacity:1;stroke:#181e35;stroke-width:0.611825;stroke-dasharray:none;stroke-opacity:1;paint-order:fill markers stroke"
       d="m 33.366608,88.315705 c -0.09549,-0.0294 -0.147555,-0.0556 -0.245189,-0.12336 -0.281717,-0.19538 -0.483795,-0.581288 -0.532663,-1.017248 -0.0097,-0.0866 -0.01228,-1.16225 -0.0097,-4.0357 l 0.0036,-3.91763 0.02678,-0.12005 c 0.109558,-0.49122 0.370208,-0.84197 0.722317,-0.97202 l 0.09873,-0.0365 h 4.338153 c 4.108956,0 4.342755,10e-4 4.425262,0.0285 0.366876,0.12012 0.648208,0.50189 0.746339,1.01275 l 0.02606,0.13563 v 3.94987 3.94987 l -0.02548,0.12898 c -0.101109,0.511928 -0.375736,0.887138 -0.737415,1.007488 -0.09567,0.0318 -0.138988,0.0321 -4.434763,0.0306 -3.372405,-10e-4 -4.352374,-0.006 -4.402034,-0.0213 z"
       id="path426-6-7-2" />
    <path
       style="display:inline;fill:#396386;fill-opacity:1;stroke:#181e35;stroke-width:0.611825;stroke-dasharray:none;stroke-opacity:1;paint-order:fill markers stroke"
       d="m 48.366608,88.315705 c -0.09549,-0.0294 -0.147555,-0.0556 -0.245189,-0.12336 -0.281717,-0.19538 -0.483795,-0.581288 -0.532663,-1.017248 -0.0097,-0.0866 -0.01228,-1.16225 -0.0097,-4.0357 l 0.0036,-3.91763 0.02678,-0.12005 c 0.109558,-0.49122 0.370208,-0.84197 0.722317,-0.97202 l 0.09873,-0.0365 h 4.338153 c 4.108956,0 4.342755,10e-4 4.425262,0.0285 0.366876,0.12012 0.648208,0.50189 0.746339,1.01275 l 0.02606,0.13563 v 3.94987 3.94987 l -0.02548,0.12898 c -0.101109,0.511928 -0.375736,0.887138 -0.737415,1.007488 -0.09567,0.0318 -0.138988,0.0321 -4.434763,0.0306 -3.372405,-10e-4 -4.352374,-0.006 -4.402034,-0.0213 z"
       id="path426-6-7-5-0" />
    <path
       style="display:inline;fill:#396386;fill-opacity:1;stroke:#181e35;stroke-width:0.611825;stroke-dasharray:none;stroke-opacity:1;paint-order:fill markers stroke"
       d="m 63.366608,88.315705 c -0.09549,-0.0294 -0.147555,-0.0556 -0.245189,-0.12336 -0.281717,-0.19538 -0.483795,-0.581288 -0.532663,-1.017248 -0.0097,-0.0866 -0.01228,-1.16225 -0.0097,-4.0357 l 0.0036,-3.91763 0.02678,-0.12005 c 0.109558,-0.49122 0.370208,-0.84197 0.722317,-0.97202 l 0.09873,-0.0365 h 4.338153 c 4.108956,0 4.342755,10e-4 4.425262,0.0285 0.366876,0.12012 0.648208,0.50189 0.746339,1.01275 l 0.02606,0.13563 v 3.94987 3.94987 l -0.02548,0.12898 c -0.101109,0.511928 -0.375736,0.887138 -0.737415,1.007488 -0.09567,0.0318 -0.138988,0.0321 -4.434763,0.0306 -3.372405,-10e-4 -4.352374,-0.006 -4.402034,-0.0213 z"
       id="path426-6-7-0-6" />
    <path
       style="display:inline;fill:#396386;fill-opacity:1;stroke:#181e35;stroke-width:0.611825;stroke-dasharray:none;stroke-opacity:1;paint-order:fill markers stroke"
       d="m 78.366608,88.315705 c -0.09549,-0.0294 -0.147555,-0.0556 -0.245189,-0.12336 -0.281717,-0.19538 -0.483795,-0.581288 -0.532663,-1.017248 -0.0097,-0.0866 -0.01228,-1.16225 -0.0097,-4.0357 l 0.0036,-3.91763 0.02678,-0.12005 c 0.109558,-0.49122 0.370208,-0.84197 0.722317,-0.97202 l 0.09873,-0.0365 h 4.338153 c 4.108956,0 4.342755,10e-4 4.425262,0.0285 0.366876,0.12012 0.648208,0.50189 0.746339,1.01275 l 0.02606,0.13563 v 3.94987 3.94987 l -0.02548,0.12898 c -0.101109,0.511928 -0.375736,0.887138 -0.737415,1.007488 -0.09567,0.0318 -0.138988,0.0321 -4.434763,0.0306 -3.372405,-10e-4 -4.352374,-0.006 -4.402034,-0.0213 z"
       id="path426-6-7-5-3-1" />
    <path
       style="display:inline;fill:#396386;fill-opacity:1;stroke:#181e35;stroke-width:0.611825;stroke-dasharray:none;stroke-opacity:1;paint-order:fill markers stroke"
       d="m 93.366608,88.315705 c -0.09549,-0.0294 -0.147555,-0.0556 -0.245189,-0.12336 -0.281717,-0.19538 -0.483795,-0.581288 -0.532663,-1.017248 -0.0097,-0.0866 -0.01228,-1.16225 -0.0097,-4.0357 l 0.0036,-3.91763 0.02678,-0.12005 c 0.109558,-0.49122 0.370208,-0.84197 0.722317,-0.97202 l 0.09873,-0.0365 h 4.338151 c 4.108946,0 4.342746,10e-4 4.425256,0.0285 0.36688,0.12012 0.64821,0.50189 0.74634,1.01275 l 0.0261,0.13563 v 3.94987 3.94987 l -0.0255,0.12898 c -0.10111,0.511928 -0.37574,0.887138 -0.73742,1.007488 -0.0957,0.0318 -0.13898,0.0321 -4.434756,0.0306 -3.3724,-10e-4 -4.352369,-0.006 -4.402029,-0.0213 z"
       id="path426-6-7-6-5" />
    <path
       style="display:inline;fill:#396386;fill-opacity:1;stroke:#181e35;stroke-width:0.611825;stroke-dasharray:none;stroke-opacity:1;paint-order:fill markers stroke"
       d="m 108.3666,88.315705 c -0.0955,-0.0294 -0.14756,-0.0556 -0.24519,-0.12336 -0.28172,-0.19538 -0.48379,-0.581288 -0.53266,-1.017248 -0.01,-0.0866 -0.0123,-1.16225 -0.01,-4.0357 l 0.004,-3.91763 0.0268,-0.12005 c 0.10956,-0.49122 0.37021,-0.84197 0.72231,-0.97202 l 0.0987,-0.0365 h 4.33816 c 4.10896,0 4.34276,10e-4 4.42526,0.0285 0.36688,0.12012 0.64821,0.50189 0.74634,1.01275 l 0.0261,0.13563 v 3.94987 3.94987 l -0.0255,0.12898 c -0.10111,0.511928 -0.37573,0.887138 -0.73741,1.007488 -0.0957,0.0318 -0.13899,0.0321 -4.43477,0.0306 -3.3724,-10e-4 -4.35237,-0.006 -4.40203,-0.0213 z"
       id="path426-6-7-5-1-5" />
    <path
       style="display:inline;fill:#396386;fill-opacity:1;stroke:#181e35;stroke-width:0.611825;stroke-dasharray:none;stroke-opacity:1;paint-order:fill markers stroke"
       d="m 123.3666,88.315705 c -0.0955,-0.0294 -0.14755,-0.0556 -0.24519,-0.12336 -0.28171,-0.19538 -0.48379,-0.581288 -0.53266,-1.017248 -0.01,-0.0866 -0.0123,-1.16225 -0.01,-4.0357 l 0.004,-3.91763 0.0268,-0.12005 c 0.10956,-0.49122 0.37021,-0.84197 0.72232,-0.97202 l 0.0987,-0.0365 h 4.33815 c 4.10896,0 4.34276,10e-4 4.42526,0.0285 0.36688,0.12012 0.64821,0.50189 0.74634,1.01275 l 0.0261,0.13563 v 3.94987 3.94987 l -0.0255,0.12898 c -0.10111,0.511928 -0.37573,0.887138 -0.73741,1.007488 -0.0957,0.0318 -0.13899,0.0321 -4.43477,0.0306 -3.3724,-10e-4 -4.35237,-0.006 -4.40203,-0.0213 z"
       id="path426-6-7-0-0-4" />
    <path
       style="display:inline;fill:#396386;fill-opacity:1;stroke:#181e35;stroke-width:0.611825;stroke-dasharray:none;stroke-opacity:1;paint-order:fill markers stroke"
       d="m 138.3666,88.315705 c -0.0955,-0.0294 -0.14755,-0.0556 -0.24519,-0.12336 -0.28171,-0.19538 -0.48379,-0.581288 -0.53266,-1.017248 -0.01,-0.0866 -0.0123,-1.16225 -0.01,-4.0357 l 0.004,-3.91763 0.0268,-0.12005 c 0.10956,-0.49122 0.37021,-0.84197 0.72232,-0.97202 l 0.0987,-0.0365 h 4.33815 c 4.10896,0 4.34276,10e-4 4.42526,0.0285 0.36688,0.12012 0.64821,0.50189 0.74634,1.01275 l 0.0261,0.13563 v 3.94987 3.94987 l -0.0255,0.12898 c -0.10111,0.511928 -0.37573,0.887138 -0.73741,1.007488 -0.0957,0.0318 -0.13899,0.0321 -4.43477,0.0306 -3.3724,-10e-4 -4.35237,-0.006 -4.40203,-0.0213 z"
       id="path426-6-7-5-3-6-7" />
    <path
       style="display:inline;fill:#396386;fill-opacity:1;stroke:#181e35;stroke-width:0.611825;stroke-dasharray:none;stroke-opacity:1;paint-order:fill markers stroke"
       d="m 153.36678,88.315705 c -0.0955,-0.0294 -0.14755,-0.0556 -0.24519,-0.12336 -0.28171,-0.19538 -0.48379,-0.581288 -0.53266,-1.017248 -0.01,-0.0866 -0.0123,-1.16225 -0.01,-4.0357 l 0.004,-3.91763 0.0268,-0.12005 c 0.10956,-0.49122 0.37021,-0.84197 0.72232,-0.97202 l 0.0987,-0.0365 h 4.33815 c 4.10896,0 4.34276,10e-4 4.42526,0.0285 0.36688,0.12012 0.64821,0.50189 0.74634,1.01275 l 0.0261,0.13563 v 3.94987 3.94987 l -0.0255,0.12898 c -0.10111,0.511928 -0.37573,0.887138 -0.73741,1.007488 -0.0957,0.0318 -0.13899,0.0321 -4.43477,0.0306 -3.3724,-10e-4 -4.35237,-0.006 -4.40203,-0.0213 z"
       id="path426-6-7-5-3-6-3-6" />
    <path
       style="display:inline;fill:#396386;fill-opacity:1;stroke:#181e35;stroke-width:0.611825;stroke-dasharray:none;stroke-opacity:1;paint-order:fill markers stroke"
       d="m 33.366786,133.31571 c -0.0955,-0.0294 -0.14755,-0.0557 -0.24518,-0.12336 -0.28172,-0.19538 -0.4838,-0.58129 -0.53267,-1.01725 -0.01,-0.0866 -0.0123,-1.16225 -0.01,-4.0357 l 0.004,-3.91763 0.0268,-0.12005 c 0.10956,-0.49122 0.37021,-0.84197 0.72232,-0.97202 l 0.0987,-0.0365 h 4.33815 c 4.10896,0 4.34276,0.001 4.42526,0.0285 0.36688,0.12012 0.64821,0.50189 0.74634,1.01275 l 0.0261,0.13562 v 3.94988 3.94987 l -0.0255,0.12898 c -0.10111,0.51193 -0.37573,0.88714 -0.73741,1.00749 -0.0957,0.0318 -0.13899,0.0321 -4.43476,0.0306 -3.37241,-0.001 -4.35238,-0.006 -4.40204,-0.0213 z"
       id="path426-6-7-65" />
    <path
       style="display:inline;fill:#396386;fill-opacity:1;stroke:#181e35;stroke-width:0.611825;stroke-dasharray:none;stroke-opacity:1;paint-order:fill markers stroke"
       d="m 48.366786,133.31571 c -0.0955,-0.0294 -0.14755,-0.0557 -0.24518,-0.12336 -0.28172,-0.19538 -0.4838,-0.58129 -0.53267,-1.01725 -0.01,-0.0866 -0.0123,-1.16225 -0.01,-4.0357 l 0.004,-3.91763 0.0268,-0.12005 c 0.10956,-0.49122 0.37021,-0.84197 0.72232,-0.97202 l 0.0987,-0.0365 h 4.33815 c 4.10896,0 4.34276,0.001 4.42526,0.0285 0.36688,0.12012 0.64821,0.50189 0.74634,1.01275 l 0.0261,0.13562 v 3.94988 3.94987 l -0.0255,0.12898 c -0.10111,0.51193 -0.37573,0.88714 -0.73741,1.00749 -0.0957,0.0318 -0.13899,0.0321 -4.43476,0.0306 -3.37241,-0.001 -4.35238,-0.006 -4.40204,-0.0213 z"
       id="path426-6-7-5-6" />
    <path
       style="display:inline;fill:#396386;fill-opacity:1;stroke:#181e35;stroke-width:0.611825;stroke-dasharray:none;stroke-opacity:1;paint-order:fill markers stroke"
       d="m 63.366786,133.31571 c -0.0955,-0.0294 -0.14755,-0.0557 -0.24518,-0.12336 -0.28172,-0.19538 -0.4838,-0.58129 -0.53267,-1.01725 -0.01,-0.0866 -0.0123,-1.16225 -0.01,-4.0357 l 0.004,-3.91763 0.0268,-0.12005 c 0.10956,-0.49122 0.37021,-0.84197 0.72232,-0.97202 l 0.0987,-0.0365 h 4.33815 c 4.10896,0 4.34276,0.001 4.42527,0.0285 0.36687,0.12012 0.6482,0.50189 0.74633,1.01275 l 0.0261,0.13562 v 3.94988 3.94987 l -0.0255,0.12898 c -0.1011,0.51193 -0.37573,0.88714 -0.73741,1.00749 -0.0957,0.0318 -0.13899,0.0321 -4.43476,0.0306 -3.37241,-0.001 -4.35238,-0.006 -4.40204,-0.0213 z"
       id="path426-6-7-0-39" />
    <path
       style="display:inline;fill:#396386;fill-opacity:1;stroke:#181e35;stroke-width:0.611825;stroke-dasharray:none;stroke-opacity:1;paint-order:fill markers stroke"
       d="m 78.366786,133.31571 c -0.0955,-0.0294 -0.14755,-0.0557 -0.24518,-0.12336 -0.28172,-0.19538 -0.4838,-0.58129 -0.53267,-1.01725 -0.01,-0.0866 -0.0123,-1.16225 -0.01,-4.0357 l 0.004,-3.91763 0.0268,-0.12005 c 0.10956,-0.49122 0.37021,-0.84197 0.72232,-0.97202 l 0.0987,-0.0365 h 4.33815 c 4.10896,0 4.34276,0.001 4.42527,0.0285 0.36687,0.12012 0.6482,0.50189 0.74633,1.01275 l 0.0261,0.13562 v 3.94988 3.94987 l -0.0255,0.12898 c -0.1011,0.51193 -0.37573,0.88714 -0.73741,1.00749 -0.0957,0.0318 -0.13899,0.0321 -4.43476,0.0306 -3.37241,-0.001 -4.35238,-0.006 -4.40204,-0.0213 z"
       id="path426-6-7-5-3-4" />
    <path
       style="display:inline;fill:#396386;fill-opacity:1;stroke:#181e35;stroke-width:0.611825;stroke-dasharray:none;stroke-opacity:1;paint-order:fill markers stroke"
       d="m 93.366786,133.31571 c -0.0955,-0.0294 -0.14755,-0.0557 -0.24518,-0.12336 -0.28172,-0.19538 -0.4838,-0.58129 -0.53267,-1.01725 -0.01,-0.0866 -0.0123,-1.16225 -0.01,-4.0357 l 0.004,-3.91763 0.0268,-0.12005 c 0.10956,-0.49122 0.37021,-0.84197 0.72232,-0.97202 l 0.0987,-0.0365 h 4.338148 c 4.108946,0 4.342746,0.001 4.425256,0.0285 0.36688,0.12012 0.64821,0.50189 0.74634,1.01275 l 0.0261,0.13562 v 3.94988 3.94987 l -0.0255,0.12898 c -0.10111,0.51193 -0.37574,0.88714 -0.73742,1.00749 -0.0957,0.0318 -0.13898,0.0321 -4.434756,0.0306 -3.372398,-0.001 -4.352368,-0.006 -4.402028,-0.0213 z"
       id="path426-6-7-6-8" />
    <path
       style="display:inline;fill:#396386;fill-opacity:1;stroke:#181e35;stroke-width:0.611825;stroke-dasharray:none;stroke-opacity:1;paint-order:fill markers stroke"
       d="m 108.36678,133.31571 c -0.0955,-0.0294 -0.14756,-0.0557 -0.24519,-0.12336 -0.28172,-0.19538 -0.48379,-0.58129 -0.53266,-1.01725 -0.01,-0.0866 -0.0123,-1.16225 -0.01,-4.0357 l 0.004,-3.91763 0.0268,-0.12005 c 0.10956,-0.49122 0.37021,-0.84197 0.72231,-0.97202 l 0.0987,-0.0365 h 4.33816 c 4.10896,0 4.34276,0.001 4.42526,0.0285 0.36688,0.12012 0.64821,0.50189 0.74634,1.01275 l 0.0261,0.13562 v 3.94988 3.94987 l -0.0255,0.12898 c -0.10111,0.51193 -0.37573,0.88714 -0.73741,1.00749 -0.0957,0.0318 -0.13899,0.0321 -4.43477,0.0306 -3.3724,-0.001 -4.35237,-0.006 -4.40203,-0.0213 z"
       id="path426-6-7-5-1-1" />
    <path
       style="display:inline;fill:#396386;fill-opacity:1;stroke:#181e35;stroke-width:0.611825;stroke-dasharray:none;stroke-opacity:1;paint-order:fill markers stroke"
       d="m 123.36678,133.31571 c -0.0955,-0.0294 -0.14755,-0.0557 -0.24519,-0.12336 -0.28171,-0.19538 -0.48379,-0.58129 -0.53266,-1.01725 -0.01,-0.0866 -0.0123,-1.16225 -0.01,-4.0357 l 0.004,-3.91763 0.0268,-0.12005 c 0.10956,-0.49122 0.37021,-0.84197 0.72232,-0.97202 l 0.0987,-0.0365 h 4.33815 c 4.10896,0 4.34276,0.001 4.42526,0.0285 0.36688,0.12012 0.64821,0.50189 0.74634,1.01275 l 0.0261,0.13562 v 3.94988 3.94987 l -0.0255,0.12898 c -0.10111,0.51193 -0.37573,0.88714 -0.73741,1.00749 -0.0957,0.0318 -0.13899,0.0321 -4.43477,0.0306 -3.3724,-0.001 -4.35237,-0.006 -4.40203,-0.0213 z"
       id="path426-6-7-0-0-2" />
    <path
       style="display:inline;fill:#396386;fill-opacity:1;stroke:#181e35;stroke-width:0.611825;stroke-dasharray:none;stroke-opacity:1;paint-order:fill markers stroke"
       d="m 138.36678,133.31571 c -0.0955,-0.0294 -0.14755,-0.0557 -0.24519,-0.12336 -0.28171,-0.19538 -0.48379,-0.58129 -0.53266,-1.01725 -0.01,-0.0866 -0.0123,-1.16225 -0.01,-4.0357 l 0.004,-3.91763 0.0268,-0.12005 c 0.10956,-0.49122 0.37021,-0.84197 0.72232,-0.97202 l 0.0987,-0.0365 h 4.33815 c 4.10896,0 4.34276,0.001 4.42526,0.0285 0.36688,0.12012 0.64821,0.50189 0.74634,1.01275 l 0.0261,0.13562 v 3.94988 3.94987 l -0.0255,0.12898 c -0.10111,0.51193 -0.37573,0.88714 -0.73741,1.00749 -0.0957,0.0318 -0.13899,0.0321 -4.43477,0.0306 -3.3724,-0.001 -4.35237,-0.006 -4.40203,-0.0213 z"
       id="path426-6-7-5-3-6-9" />
    <path
       style="display:inline;fill:#396386;fill-opacity:1;stroke:#181e35;stroke-width:0.611825;stroke-dasharray:none;stroke-opacity:1;paint-order:fill markers stroke"
       d="m 153.36696,133.31571 c -0.0955,-0.0294 -0.14755,-0.0557 -0.24519,-0.12336 -0.28171,-0.19538 -0.48379,-0.58129 -0.53266,-1.01725 -0.01,-0.0866 -0.0123,-1.16225 -0.01,-4.0357 l 0.004,-3.91763 0.0268,-0.12005 c 0.10956,-0.49122 0.37021,-0.84197 0.72232,-0.97202 l 0.0987,-0.0365 h 4.33815 c 4.10896,0 4.34276,0.001 4.42526,0.0285 0.36688,0.12012 0.64821,0.50189 0.74634,1.01275 l 0.0261,0.13562 v 3.94988 3.94987 l -0.0255,0.12898 c -0.10111,0.51193 -0.37573,0.88714 -0.73741,1.00749 -0.0957,0.0318 -0.13899,0.0321 -4.43477,0.0306 -3.3724,-0.001 -4.35237,-0.006 -4.40203,-0.0213 z"
       id="path426-6-7-5-3-6-3-3" />
    <path
       style="display:inline;fill:#396386;fill-opacity:1;stroke:#181e35;stroke-width:0.611825;stroke-dasharray:none;stroke-opacity:1;paint-order:fill markers stroke"
       d="m 33.366786,148.31574 c -0.0955,-0.0294 -0.14755,-0.0556 -0.24518,-0.12336 -0.28172,-0.19538 -0.4838,-0.58129 -0.53267,-1.01725 -0.01,-0.0866 -0.0123,-1.16225 -0.01,-4.0357 l 0.004,-3.91763 0.0268,-0.12005 c 0.10956,-0.49122 0.37021,-0.84197 0.72232,-0.97202 l 0.0987,-0.0365 h 4.33815 c 4.10896,0 4.34276,0.001 4.42526,0.0285 0.36688,0.12012 0.64821,0.50189 0.74634,1.01275 l 0.0261,0.13563 v 3.94987 3.94987 l -0.0255,0.12898 c -0.10111,0.51193 -0.37573,0.88714 -0.73741,1.00749 -0.0957,0.0318 -0.13899,0.0321 -4.43476,0.0306 -3.37241,-0.001 -4.35238,-0.006 -4.40204,-0.0213 z"
       id="path426-6-7-2-9" />
    <path
       style="display:inline;fill:#396386;fill-opacity:1;stroke:#181e35;stroke-width:0.611825;stroke-dasharray:none;stroke-opacity:1;paint-order:fill markers stroke"
       d="m 48.366786,148.31574 c -0.0955,-0.0294 -0.14755,-0.0556 -0.24518,-0.12336 -0.28172,-0.19538 -0.4838,-0.58129 -0.53267,-1.01725 -0.01,-0.0866 -0.0123,-1.16225 -0.01,-4.0357 l 0.004,-3.91763 0.0268,-0.12005 c 0.10956,-0.49122 0.37021,-0.84197 0.72232,-0.97202 l 0.0987,-0.0365 h 4.33815 c 4.10896,0 4.34276,0.001 4.42526,0.0285 0.36688,0.12012 0.64821,0.50189 0.74634,1.01275 l 0.0261,0.13563 v 3.94987 3.94987 l -0.0255,0.12898 c -0.10111,0.51193 -0.37573,0.88714 -0.73741,1.00749 -0.0957,0.0318 -0.13899,0.0321 -4.43476,0.0306 -3.37241,-0.001 -4.35238,-0.006 -4.40204,-0.0213 z"
       id="path426-6-7-5-0-0" />
    <path
       style="display:inline;fill:#396386;fill-opacity:1;stroke:#181e35;stroke-width:0.611825;stroke-dasharray:none;stroke-opacity:1;paint-order:fill markers stroke"
       d="m 63.366786,148.31574 c -0.0955,-0.0294 -0.14755,-0.0556 -0.24518,-0.12336 -0.28172,-0.19538 -0.4838,-0.58129 -0.53267,-1.01725 -0.01,-0.0866 -0.0123,-1.16225 -0.01,-4.0357 l 0.004,-3.91763 0.0268,-0.12005 c 0.10956,-0.49122 0.37021,-0.84197 0.72232,-0.97202 l 0.0987,-0.0365 h 4.33815 c 4.10896,0 4.34276,0.001 4.42527,0.0285 0.36687,0.12012 0.6482,0.50189 0.74633,1.01275 l 0.0261,0.13563 v 3.94987 3.94987 l -0.0255,0.12898 c -0.1011,0.51193 -0.37573,0.88714 -0.73741,1.00749 -0.0957,0.0318 -0.13899,0.0321 -4.43476,0.0306 -3.37241,-0.001 -4.35238,-0.006 -4.40204,-0.0213 z"
       id="path426-6-7-0-6-8" />
    <path
       style="display:inline;fill:#396386;fill-opacity:1;stroke:#181e35;stroke-width:0.611825;stroke-dasharray:none;stroke-opacity:1;paint-order:fill markers stroke"
       d="m 78.366786,148.31574 c -0.0955,-0.0294 -0.14755,-0.0556 -0.24518,-0.12336 -0.28172,-0.19538 -0.4838,-0.58129 -0.53267,-1.01725 -0.01,-0.0866 -0.0123,-1.16225 -0.01,-4.0357 l 0.004,-3.91763 0.0268,-0.12005 c 0.10956,-0.49122 0.37021,-0.84197 0.72232,-0.97202 l 0.0987,-0.0365 h 4.33815 c 4.10896,0 4.34276,0.001 4.42527,0.0285 0.36687,0.12012 0.6482,0.50189 0.74633,1.01275 l 0.0261,0.13563 v 3.94987 3.94987 l -0.0255,0.12898 c -0.1011,0.51193 -0.37573,0.88714 -0.73741,1.00749 -0.0957,0.0318 -0.13899,0.0321 -4.43476,0.0306 -3.37241,-0.001 -4.35238,-0.006 -4.40204,-0.0213 z"
       id="path426-6-7-5-3-1-8" />
    <path
       style="display:inline;fill:#396386;fill-opacity:1;stroke:#181e35;stroke-width:0.611825;stroke-dasharray:none;stroke-opacity:1;paint-order:fill markers stroke"
       d="m 93.366786,148.31574 c -0.0955,-0.0294 -0.14755,-0.0556 -0.24518,-0.12336 -0.28172,-0.19538 -0.4838,-0.58129 -0.53267,-1.01725 -0.01,-0.0866 -0.0123,-1.16225 -0.01,-4.0357 l 0.004,-3.91763 0.0268,-0.12005 c 0.10956,-0.49122 0.37021,-0.84197 0.72232,-0.97202 l 0.0987,-0.0365 h 4.338148 c 4.108946,0 4.342746,0.001 4.425256,0.0285 0.36688,0.12012 0.64821,0.50189 0.74634,1.01275 l 0.0261,0.13563 v 3.94987 3.94987 l -0.0255,0.12898 c -0.10111,0.51193 -0.37574,0.88714 -0.73742,1.00749 -0.0957,0.0318 -0.13898,0.0321 -4.434756,0.0306 -3.372398,-0.001 -4.352368,-0.006 -4.402028,-0.0213 z"
       id="path426-6-7-6-5-5" />
    <path
       style="display:inline;fill:#396386;fill-opacity:1;stroke:#181e35;stroke-width:0.611825;stroke-dasharray:none;stroke-opacity:1;paint-order:fill markers stroke"
       d="m 108.36678,148.31574 c -0.0955,-0.0294 -0.14756,-0.0556 -0.24519,-0.12336 -0.28172,-0.19538 -0.48379,-0.58129 -0.53266,-1.01725 -0.01,-0.0866 -0.0123,-1.16225 -0.01,-4.0357 l 0.004,-3.91763 0.0268,-0.12005 c 0.10956,-0.49122 0.37021,-0.84197 0.72231,-0.97202 l 0.0987,-0.0365 h 4.33816 c 4.10896,0 4.34276,0.001 4.42526,0.0285 0.36688,0.12012 0.64821,0.50189 0.74634,1.01275 l 0.0261,0.13563 v 3.94987 3.94987 l -0.0255,0.12898 c -0.10111,0.51193 -0.37573,0.88714 -0.73741,1.00749 -0.0957,0.0318 -0.13899,0.0321 -4.43477,0.0306 -3.3724,-0.001 -4.35237,-0.006 -4.40203,-0.0213 z"
       id="path426-6-7-5-1-5-0" />
    <path
       style="display:inline;fill:#396386;fill-opacity:1;stroke:#181e35;stroke-width:0.611825;stroke-dasharray:none;stroke-opacity:1;paint-order:fill markers stroke"
       d="m 123.36678,148.31574 c -0.0955,-0.0294 -0.14755,-0.0556 -0.24519,-0.12336 -0.28171,-0.19538 -0.48379,-0.58129 -0.53266,-1.01725 -0.01,-0.0866 -0.0123,-1.16225 -0.01,-4.0357 l 0.004,-3.91763 0.0268,-0.12005 c 0.10956,-0.49122 0.37021,-0.84197 0.72232,-0.97202 l 0.0987,-0.0365 h 4.33815 c 4.10896,0 4.34276,0.001 4.42526,0.0285 0.36688,0.12012 0.64821,0.50189 0.74634,1.01275 l 0.0261,0.13563 v 3.94987 3.94987 l -0.0255,0.12898 c -0.10111,0.51193 -0.37573,0.88714 -0.73741,1.00749 -0.0957,0.0318 -0.13899,0.0321 -4.43477,0.0306 -3.3724,-0.001 -4.35237,-0.006 -4.40203,-0.0213 z"
       id="path426-6-7-0-0-4-9" />
    <path
       style="display:inline;fill:#396386;fill-opacity:1;stroke:#181e35;stroke-width:0.611825;stroke-dasharray:none;stroke-opacity:1;paint-order:fill markers stroke"
       d="m 138.36678,148.31574 c -0.0955,-0.0294 -0.14755,-0.0556 -0.24519,-0.12336 -0.28171,-0.19538 -0.48379,-0.58129 -0.53266,-1.01725 -0.01,-0.0866 -0.0123,-1.16225 -0.01,-4.0357 l 0.004,-3.91763 0.0268,-0.12005 c 0.10956,-0.49122 0.37021,-0.84197 0.72232,-0.97202 l 0.0987,-0.0365 h 4.33815 c 4.10896,0 4.34276,0.001 4.42526,0.0285 0.36688,0.12012 0.64821,0.50189 0.74634,1.01275 l 0.0261,0.13563 v 3.94987 3.94987 l -0.0255,0.12898 c -0.10111,0.51193 -0.37573,0.88714 -0.73741,1.00749 -0.0957,0.0318 -0.13899,0.0321 -4.43477,0.0306 -3.3724,-0.001 -4.35237,-0.006 -4.40203,-0.0213 z"
       id="path426-6-7-5-3-6-7-6" />
    <path
       style="display:inline;fill:#396386;fill-opacity:1;stroke:#181e35;stroke-width:0.611825;stroke-dasharray:none;stroke-opacity:1;paint-order:fill markers stroke"
       d="m 153.36696,148.31574 c -0.0955,-0.0294 -0.14755,-0.0556 -0.24519,-0.12336 -0.28171,-0.19538 -0.48379,-0.58129 -0.53266,-1.01725 -0.01,-0.0866 -0.0123,-1.16225 -0.01,-4.0357 l 0.004,-3.91763 0.0268,-0.12005 c 0.10956,-0.49122 0.37021,-0.84197 0.72232,-0.97202 l 0.0987,-0.0365 h 4.33815 c 4.10896,0 4.34276,0.001 4.42526,0.0285 0.36688,0.12012 0.64821,0.50189 0.74634,1.01275 l 0.0261,0.13563 v 3.94987 3.94987 l -0.0255,0.12898 c -0.10111,0.51193 -0.37573,0.88714 -0.73741,1.00749 -0.0957,0.0318 -0.13899,0.0321 -4.43477,0.0306 -3.3724,-0.001 -4.35237,-0.006 -4.40203,-0.0213 z"
       id="path426-6-7-5-3-6-3-6-3" />
    <path
       style="display:inline;fill:#396386;fill-opacity:1;stroke:#181e35;stroke-width:0.611825;stroke-dasharray:none;stroke-opacity:1;paint-order:fill markers stroke"
       d="m 33.366786,103.31572 c -0.0955,-0.0294 -0.14755,-0.0556 -0.24519,-0.12337 -0.28171,-0.19537 -0.48379,-0.58128 -0.53266,-1.01725 -0.01,-0.0866 -0.0123,-1.16224 -0.01,-4.035695 l 0.004,-3.91764 0.0268,-0.12005 c 0.10956,-0.49122 0.37021,-0.84197 0.72232,-0.97202 l 0.0987,-0.0365 h 4.33815 c 4.10896,0 4.34275,0.001 4.42526,0.0285 0.36688,0.12013 0.64821,0.50189 0.74634,1.01276 l 0.0261,0.13562 v 3.94987 3.949885 l -0.0255,0.12897 c -0.10111,0.51193 -0.37574,0.88714 -0.73741,1.00749 -0.0957,0.0318 -0.13899,0.0321 -4.43477,0.0306 -3.3724,-10e-4 -4.35237,-0.006 -4.40203,-0.0213 z"
       id="path426-6-7-56" />
    <path
       style="display:inline;fill:#396386;fill-opacity:1;stroke:#181e35;stroke-width:0.611825;stroke-dasharray:none;stroke-opacity:1;paint-order:fill markers stroke"
       d="m 48.366786,103.31572 c -0.0955,-0.0294 -0.14755,-0.0556 -0.24519,-0.12337 -0.28171,-0.19537 -0.48379,-0.58128 -0.53266,-1.01725 -0.01,-0.0866 -0.0123,-1.16224 -0.01,-4.035695 l 0.004,-3.91764 0.0268,-0.12005 c 0.10956,-0.49122 0.37021,-0.84197 0.72232,-0.97202 l 0.0987,-0.0365 h 4.33815 c 4.10896,0 4.34275,0.001 4.42526,0.0285 0.36688,0.12013 0.64821,0.50189 0.74634,1.01276 l 0.0261,0.13562 v 3.94987 3.949885 l -0.0255,0.12897 c -0.10111,0.51193 -0.37574,0.88714 -0.73741,1.00749 -0.0957,0.0318 -0.13899,0.0321 -4.43477,0.0306 -3.3724,-10e-4 -4.35237,-0.006 -4.40203,-0.0213 z"
       id="path426-6-7-5-9" />
    <path
       style="display:inline;fill:#396386;fill-opacity:1;stroke:#181e35;stroke-width:0.611825;stroke-dasharray:none;stroke-opacity:1;paint-order:fill markers stroke"
       d="m 63.366786,103.31572 c -0.0955,-0.0294 -0.14755,-0.0556 -0.24519,-0.12337 -0.28171,-0.19537 -0.48379,-0.58128 -0.53266,-1.01725 -0.01,-0.0866 -0.0123,-1.16224 -0.01,-4.035695 l 0.004,-3.91764 0.0268,-0.12005 c 0.10956,-0.49122 0.37021,-0.84197 0.72232,-0.97202 l 0.0987,-0.0365 h 4.33815 c 4.10896,0 4.34276,0.001 4.42526,0.0285 0.36688,0.12013 0.64821,0.50189 0.74634,1.01276 l 0.0261,0.13562 v 3.94987 3.949885 l -0.0255,0.12897 c -0.10111,0.51193 -0.37574,0.88714 -0.73741,1.00749 -0.0957,0.0318 -0.13899,0.0321 -4.43477,0.0306 -3.3724,-10e-4 -4.35237,-0.006 -4.40203,-0.0213 z"
       id="path426-6-7-0-3" />
    <path
       style="display:inline;fill:#396386;fill-opacity:1;stroke:#181e35;stroke-width:0.611825;stroke-dasharray:none;stroke-opacity:1;paint-order:fill markers stroke"
       d="m 78.366786,103.31572 c -0.0955,-0.0294 -0.14755,-0.0556 -0.24519,-0.12337 -0.28171,-0.19537 -0.48379,-0.58128 -0.53266,-1.01725 -0.01,-0.0866 -0.0123,-1.16224 -0.01,-4.035695 l 0.004,-3.91764 0.0268,-0.12005 c 0.10956,-0.49122 0.37021,-0.84197 0.72232,-0.97202 l 0.0987,-0.0365 h 4.33815 c 4.10896,0 4.34276,0.001 4.42526,0.0285 0.36688,0.12013 0.64821,0.50189 0.74634,1.01276 l 0.0261,0.13562 v 3.94987 3.949885 l -0.0255,0.12897 c -0.10111,0.51193 -0.37574,0.88714 -0.73741,1.00749 -0.0957,0.0318 -0.13899,0.0321 -4.43477,0.0306 -3.3724,-10e-4 -4.35237,-0.006 -4.40203,-0.0213 z"
       id="path426-6-7-5-3-7" />
    <path
       style="display:inline;fill:#396386;fill-opacity:1;stroke:#181e35;stroke-width:0.611825;stroke-dasharray:none;stroke-opacity:1;paint-order:fill markers stroke"
       d="m 93.366786,103.31572 c -0.0955,-0.0294 -0.14755,-0.0556 -0.24519,-0.12337 -0.28171,-0.19537 -0.48379,-0.58128 -0.53266,-1.01725 -0.01,-0.0866 -0.0123,-1.16224 -0.01,-4.035695 l 0.004,-3.91764 0.0268,-0.12005 c 0.10956,-0.49122 0.37021,-0.84197 0.72232,-0.97202 l 0.0987,-0.0365 h 4.338148 c 4.108946,0 4.342746,0.001 4.425256,0.0285 0.36688,0.12013 0.64821,0.50189 0.74634,1.01276 l 0.0261,0.13562 v 3.94987 3.949885 l -0.0255,0.12897 c -0.10111,0.51193 -0.37574,0.88714 -0.73742,1.00749 -0.0957,0.0318 -0.13898,0.0321 -4.434756,0.0306 -3.372398,-10e-4 -4.352368,-0.006 -4.402028,-0.0213 z"
       id="path426-6-7-6-4" />
    <path
       style="display:inline;fill:#396386;fill-opacity:1;stroke:#181e35;stroke-width:0.611825;stroke-dasharray:none;stroke-opacity:1;paint-order:fill markers stroke"
       d="m 108.36678,103.31572 c -0.0955,-0.0294 -0.14756,-0.0556 -0.24519,-0.12337 -0.28172,-0.19537 -0.48379,-0.58128 -0.53266,-1.01725 -0.01,-0.0866 -0.0123,-1.16224 -0.01,-4.035695 l 0.004,-3.91764 0.0268,-0.12005 c 0.10956,-0.49122 0.37021,-0.84197 0.72231,-0.97202 l 0.0987,-0.0365 h 4.33816 c 4.10896,0 4.34276,0.001 4.42526,0.0285 0.36688,0.12013 0.64821,0.50189 0.74634,1.01276 l 0.0261,0.13562 v 3.94987 3.949885 l -0.0255,0.12897 c -0.10111,0.51193 -0.37573,0.88714 -0.73741,1.00749 -0.0957,0.0318 -0.13899,0.0321 -4.43477,0.0306 -3.3724,-10e-4 -4.35237,-0.006 -4.40203,-0.0213 z"
       id="path426-6-7-5-1-52" />
    <path
       style="display:inline;fill:#396386;fill-opacity:1;stroke:#181e35;stroke-width:0.611825;stroke-dasharray:none;stroke-opacity:1;paint-order:fill markers stroke"
       d="m 123.36678,103.31572 c -0.0955,-0.0294 -0.14755,-0.0556 -0.24519,-0.12337 -0.28171,-0.19537 -0.48379,-0.58128 -0.53266,-1.01725 -0.01,-0.0866 -0.0123,-1.16224 -0.01,-4.035695 l 0.004,-3.91764 0.0268,-0.12005 c 0.10956,-0.49122 0.37021,-0.84197 0.72232,-0.97202 l 0.0987,-0.0365 h 4.33815 c 4.10896,0 4.34276,0.001 4.42526,0.0285 0.36688,0.12013 0.64821,0.50189 0.74634,1.01276 l 0.0261,0.13562 v 3.94987 3.949885 l -0.0255,0.12897 c -0.10111,0.51193 -0.37573,0.88714 -0.73741,1.00749 -0.0957,0.0318 -0.13899,0.0321 -4.43477,0.0306 -3.3724,-10e-4 -4.35237,-0.006 -4.40203,-0.0213 z"
       id="path426-6-7-0-0-5" />
    <path
       style="display:inline;fill:#396386;fill-opacity:1;stroke:#181e35;stroke-width:0.611825;stroke-dasharray:none;stroke-opacity:1;paint-order:fill markers stroke"
       d="m 138.36678,103.31572 c -0.0955,-0.0294 -0.14755,-0.0556 -0.24519,-0.12337 -0.28171,-0.19537 -0.48379,-0.58128 -0.53266,-1.01725 -0.01,-0.0866 -0.0123,-1.16224 -0.01,-4.035695 l 0.004,-3.91764 0.0268,-0.12005 c 0.10956,-0.49122 0.37021,-0.84197 0.72232,-0.97202 l 0.0987,-0.0365 h 4.33815 c 4.10896,0 4.34276,0.001 4.42526,0.0285 0.36688,0.12013 0.64821,0.50189 0.74634,1.01276 l 0.0261,0.13562 v 3.94987 3.949885 l -0.0255,0.12897 c -0.10111,0.51193 -0.37573,0.88714 -0.73741,1.00749 -0.0957,0.0318 -0.13899,0.0321 -4.43477,0.0306 -3.3724,-10e-4 -4.35237,-0.006 -4.40203,-0.0213 z"
       id="path426-6-7-5-3-6-4" />
    <path
       style="display:inline;fill:#396386;fill-opacity:1;stroke:#181e35;stroke-width:0.611825;stroke-dasharray:none;stroke-opacity:1;paint-order:fill markers stroke"
       d="m 153.36696,103.31572 c -0.0955,-0.0294 -0.14755,-0.0556 -0.24519,-0.12337 -0.28171,-0.19537 -0.48379,-0.58128 -0.53266,-1.01725 -0.01,-0.0866 -0.0123,-1.16224 -0.01,-4.035695 l 0.004,-3.91764 0.0268,-0.12005 c 0.10956,-0.49122 0.37021,-0.84197 0.72232,-0.97202 l 0.0987,-0.0365 h 4.33815 c 4.10896,0 4.34276,0.001 4.42526,0.0285 0.36688,0.12013 0.64821,0.50189 0.74634,1.01276 l 0.0261,0.13562 v 3.94987 3.949885 l -0.0255,0.12897 c -0.10111,0.51193 -0.37573,0.88714 -0.73741,1.00749 -0.0957,0.0318 -0.13899,0.0321 -4.43477,0.0306 -3.3724,-10e-4 -4.35237,-0.006 -4.40203,-0.0213 z"
       id="path426-6-7-5-3-6-3-7" />
    <path
       style="display:inline;fill:#396386;fill-opacity:1;stroke:#181e35;stroke-width:0.611825;stroke-dasharray:none;stroke-opacity:1;paint-order:fill markers stroke"
       d="m 33.366786,118.31574 c -0.0955,-0.0294 -0.14755,-0.0556 -0.24519,-0.12336 -0.28171,-0.19538 -0.48379,-0.58129 -0.53266,-1.01725 -0.01,-0.0866 -0.0123,-1.16225 -0.01,-4.0357 l 0.004,-3.91763 0.0268,-0.12005 c 0.10956,-0.49122 0.37021,-0.84197 0.72232,-0.97202 l 0.0987,-0.0365 h 4.33815 c 4.10896,0 4.34275,10e-4 4.42526,0.0285 0.36688,0.12012 0.64821,0.50189 0.74634,1.01275 l 0.0261,0.13563 v 3.94987 3.94987 l -0.0255,0.12898 c -0.10111,0.51193 -0.37574,0.88714 -0.73741,1.00749 -0.0957,0.0318 -0.13899,0.0321 -4.43477,0.0306 -3.3724,-0.001 -4.35237,-0.006 -4.40203,-0.0213 z"
       id="path426-6-7-2-4" />
    <path
       style="display:inline;fill:#396386;fill-opacity:1;stroke:#181e35;stroke-width:0.611825;stroke-dasharray:none;stroke-opacity:1;paint-order:fill markers stroke"
       d="m 48.366786,118.31574 c -0.0955,-0.0294 -0.14755,-0.0556 -0.24519,-0.12336 -0.28171,-0.19538 -0.48379,-0.58129 -0.53266,-1.01725 -0.01,-0.0866 -0.0123,-1.16225 -0.01,-4.0357 l 0.004,-3.91763 0.0268,-0.12005 c 0.10956,-0.49122 0.37021,-0.84197 0.72232,-0.97202 l 0.0987,-0.0365 h 4.33815 c 4.10896,0 4.34275,10e-4 4.42526,0.0285 0.36688,0.12012 0.64821,0.50189 0.74634,1.01275 l 0.0261,0.13563 v 3.94987 3.94987 l -0.0255,0.12898 c -0.10111,0.51193 -0.37574,0.88714 -0.73741,1.00749 -0.0957,0.0318 -0.13899,0.0321 -4.43477,0.0306 -3.3724,-0.001 -4.35237,-0.006 -4.40203,-0.0213 z"
       id="path426-6-7-5-0-4" />
    <path
       style="display:inline;fill:#396386;fill-opacity:1;stroke:#181e35;stroke-width:0.611825;stroke-dasharray:none;stroke-opacity:1;paint-order:fill markers stroke"
       d="m 63.366786,118.31574 c -0.0955,-0.0294 -0.14755,-0.0556 -0.24519,-0.12336 -0.28171,-0.19538 -0.48379,-0.58129 -0.53266,-1.01725 -0.01,-0.0866 -0.0123,-1.16225 -0.01,-4.0357 l 0.004,-3.91763 0.0268,-0.12005 c 0.10956,-0.49122 0.37021,-0.84197 0.72232,-0.97202 l 0.0987,-0.0365 h 4.33815 c 4.10896,0 4.34276,10e-4 4.42526,0.0285 0.36688,0.12012 0.64821,0.50189 0.74634,1.01275 l 0.0261,0.13563 v 3.94987 3.94987 l -0.0255,0.12898 c -0.10111,0.51193 -0.37574,0.88714 -0.73741,1.00749 -0.0957,0.0318 -0.13899,0.0321 -4.43477,0.0306 -3.3724,-0.001 -4.35237,-0.006 -4.40203,-0.0213 z"
       id="path426-6-7-0-6-3" />
    <path
       style="display:inline;fill:#396386;fill-opacity:1;stroke:#181e35;stroke-width:0.611825;stroke-dasharray:none;stroke-opacity:1;paint-order:fill markers stroke"
       d="m 78.366786,118.31574 c -0.0955,-0.0294 -0.14755,-0.0556 -0.24519,-0.12336 -0.28171,-0.19538 -0.48379,-0.58129 -0.53266,-1.01725 -0.01,-0.0866 -0.0123,-1.16225 -0.01,-4.0357 l 0.004,-3.91763 0.0268,-0.12005 c 0.10956,-0.49122 0.37021,-0.84197 0.72232,-0.97202 l 0.0987,-0.0365 h 4.33815 c 4.10896,0 4.34276,10e-4 4.42526,0.0285 0.36688,0.12012 0.64821,0.50189 0.74634,1.01275 l 0.0261,0.13563 v 3.94987 3.94987 l -0.0255,0.12898 c -0.10111,0.51193 -0.37574,0.88714 -0.73741,1.00749 -0.0957,0.0318 -0.13899,0.0321 -4.43477,0.0306 -3.3724,-0.001 -4.35237,-0.006 -4.40203,-0.0213 z"
       id="path426-6-7-5-3-1-0" />
    <path
       style="display:inline;fill:#396386;fill-opacity:1;stroke:#181e35;stroke-width:0.611825;stroke-dasharray:none;stroke-opacity:1;paint-order:fill markers stroke"
       d="m 93.366786,118.31574 c -0.0955,-0.0294 -0.14755,-0.0556 -0.24519,-0.12336 -0.28171,-0.19538 -0.48379,-0.58129 -0.53266,-1.01725 -0.01,-0.0866 -0.0123,-1.16225 -0.01,-4.0357 l 0.004,-3.91763 0.0268,-0.12005 c 0.10956,-0.49122 0.37021,-0.84197 0.72232,-0.97202 l 0.0987,-0.0365 h 4.338148 c 4.108946,0 4.342746,10e-4 4.425256,0.0285 0.36688,0.12012 0.64821,0.50189 0.74634,1.01275 l 0.0261,0.13563 v 3.94987 3.94987 l -0.0255,0.12898 c -0.10111,0.51193 -0.37574,0.88714 -0.73742,1.00749 -0.0957,0.0318 -0.13898,0.0321 -4.434756,0.0306 -3.372398,-0.001 -4.352368,-0.006 -4.402028,-0.0213 z"
       id="path426-6-7-6-5-7" />
    <path
       style="display:inline;fill:#396386;fill-opacity:1;stroke:#181e35;stroke-width:0.611825;stroke-dasharray:none;stroke-opacity:1;paint-order:fill markers stroke"
       d="m 108.36678,118.31574 c -0.0955,-0.0294 -0.14756,-0.0556 -0.24519,-0.12336 -0.28172,-0.19538 -0.48379,-0.58129 -0.53266,-1.01725 -0.01,-0.0866 -0.0123,-1.16225 -0.01,-4.0357 l 0.004,-3.91763 0.0268,-0.12005 c 0.10956,-0.49122 0.37021,-0.84197 0.72231,-0.97202 l 0.0987,-0.0365 h 4.33816 c 4.10896,0 4.34276,10e-4 4.42526,0.0285 0.36688,0.12012 0.64821,0.50189 0.74634,1.01275 l 0.0261,0.13563 v 3.94987 3.94987 l -0.0255,0.12898 c -0.10111,0.51193 -0.37573,0.88714 -0.73741,1.00749 -0.0957,0.0318 -0.13899,0.0321 -4.43477,0.0306 -3.3724,-0.001 -4.35237,-0.006 -4.40203,-0.0213 z"
       id="path426-6-7-5-1-5-8" />
    <path
       style="display:inline;fill:#396386;fill-opacity:1;stroke:#181e35;stroke-width:0.611825;stroke-dasharray:none;stroke-opacity:1;paint-order:fill markers stroke"
       d="m 123.36678,118.31574 c -0.0955,-0.0294 -0.14755,-0.0556 -0.24519,-0.12336 -0.28171,-0.19538 -0.48379,-0.58129 -0.53266,-1.01725 -0.01,-0.0866 -0.0123,-1.16225 -0.01,-4.0357 l 0.004,-3.91763 0.0268,-0.12005 c 0.10956,-0.49122 0.37021,-0.84197 0.72232,-0.97202 l 0.0987,-0.0365 h 4.33815 c 4.10896,0 4.34276,10e-4 4.42526,0.0285 0.36688,0.12012 0.64821,0.50189 0.74634,1.01275 l 0.0261,0.13563 v 3.94987 3.94987 l -0.0255,0.12898 c -0.10111,0.51193 -0.37573,0.88714 -0.73741,1.00749 -0.0957,0.0318 -0.13899,0.0321 -4.43477,0.0306 -3.3724,-0.001 -4.35237,-0.006 -4.40203,-0.0213 z"
       id="path426-6-7-0-0-4-6" />
    <path
       style="display:inline;fill:#396386;fill-opacity:1;stroke:#181e35;stroke-width:0.611825;stroke-dasharray:none;stroke-opacity:1;paint-order:fill markers stroke"
       d="m 138.36678,118.31574 c -0.0955,-0.0294 -0.14755,-0.0556 -0.24519,-0.12336 -0.28171,-0.19538 -0.48379,-0.58129 -0.53266,-1.01725 -0.01,-0.0866 -0.0123,-1.16225 -0.01,-4.0357 l 0.004,-3.91763 0.0268,-0.12005 c 0.10956,-0.49122 0.37021,-0.84197 0.72232,-0.97202 l 0.0987,-0.0365 h 4.33815 c 4.10896,0 4.34276,10e-4 4.42526,0.0285 0.36688,0.12012 0.64821,0.50189 0.74634,1.01275 l 0.0261,0.13563 v 3.94987 3.94987 l -0.0255,0.12898 c -0.10111,0.51193 -0.37573,0.88714 -0.73741,1.00749 -0.0957,0.0318 -0.13899,0.0321 -4.43477,0.0306 -3.3724,-0.001 -4.35237,-0.006 -4.40203,-0.0213 z"
       id="path426-6-7-5-3-6-7-8" />
    <path
       style="display:inline;fill:#396386;fill-opacity:1;stroke:#181e35;stroke-width:0.611825;stroke-dasharray:none;stroke-opacity:1;paint-order:fill markers stroke"
       d="m 153.36696,118.31574 c -0.0955,-0.0294 -0.14755,-0.0556 -0.24519,-0.12336 -0.28171,-0.19538 -0.48379,-0.58129 -0.53266,-1.01725 -0.01,-0.0866 -0.0123,-1.16225 -0.01,-4.0357 l 0.004,-3.91763 0.0268,-0.12005 c 0.10956,-0.49122 0.37021,-0.84197 0.72232,-0.97202 l 0.0987,-0.0365 h 4.33815 c 4.10896,0 4.34276,10e-4 4.42526,0.0285 0.36688,0.12012 0.64821,0.50189 0.74634,1.01275 l 0.0261,0.13563 v 3.94987 3.94987 l -0.0255,0.12898 c -0.10111,0.51193 -0.37573,0.88714 -0.73741,1.00749 -0.0957,0.0318 -0.13899,0.0321 -4.43477,0.0306 -3.3724,-0.001 -4.35237,-0.006 -4.40203,-0.0213 z"
       id="path426-6-7-5-3-6-3-6-8" />
  </g>
  <g
     inkscape:groupmode="layer"
     id="layer3"
     inkscape:label="Komponenten"
     style="display:inline"
     transform="translate(-23.337998,-64.317039)">
    <g
       inkscape:groupmode="layer"
       id="layer4-7"
       inkscape:label="S-Shadow"
       style="display:inline;opacity:0.55;filter:url(#filter25561)"
       transform="translate(1.1251055,2.0606212)">
      <rect
         style="font-variation-settings:normal;display:inline;opacity:1;fill:#000000;fill-opacity:1;stroke:#000000;stroke-width:0.97721;stroke-linecap:butt;stroke-linejoin:miter;stroke-miterlimit:4;stroke-dasharray:none;stroke-dashoffset:0;stroke-opacity:1;paint-order:fill markers stroke;stop-color:#000000;stop-opacity:1"
         id="rect20309-8"
         width="34.186935"
         height="5.135181"
         x="34.96241"
         y="80.413063"
         ry="2.5675905" />
      <rect
         style="font-variation-settings:normal;display:inline;fill:#000000;fill-opacity:1;stroke:#000000;stroke-width:0.796417;stroke-linecap:butt;stroke-linejoin:miter;stroke-miterlimit:4;stroke-dasharray:none;stroke-dashoffset:0;stroke-opacity:1;paint-order:fill markers stroke;stop-color:#000000"
         id="rect20309-4-5"
         width="21.934855"
         height="5.3159776"
         x="34.485741"
         y="110.63919"
         ry="2.6579888" />
      <path
         id="rect20421-7"
         style="display:inline;opacity:1;fill:#000000;fill-opacity:1;stroke:#000000;stroke-width:0.948507;stroke-opacity:1;paint-order:fill markers stroke;stop-color:#000000;stop-opacity:1"
         d="m 32.38796,76.057449 h 7.740709 c 2.655333,0 4.79302,2.137687 4.79302,4.793021 0,0 -5.830904,4.596157 -5.830904,17.67682 0,13.08066 5.830904,17.67682 5.830904,17.67682 0.75678,2.5452 -2.137687,4.79302 -4.79302,4.79302 H 32.38796 c -2.655333,0 -4.793021,-2.13769 -4.793021,-4.79302 V 80.85047 c 0,-2.655334 2.137688,-4.793021 4.793021,-4.793021 z"
         sodipodi:nodetypes="ssszssssss" />
      <rect
         style="font-variation-settings:normal;display:inline;fill:#000000;fill-opacity:1;stroke:#000000;stroke-width:0.796417;stroke-linecap:butt;stroke-linejoin:miter;stroke-miterlimit:4;stroke-dasharray:none;stroke-dashoffset:0;stroke-opacity:1;paint-order:fill markers stroke;stop-color:#000000"
         id="rect20309-1-4"
         width="21.934855"
         height="5.3159776"
         x="50.59169"
         y="124.11453"
         ry="2.6579888" />
      <rect
         style="font-variation-settings:normal;display:inline;fill:#000000;fill-opacity:1;stroke:#000000;stroke-width:0.996722;stroke-linecap:butt;stroke-linejoin:miter;stroke-miterlimit:4;stroke-dasharray:none;stroke-dashoffset:0;stroke-opacity:1;paint-order:fill markers stroke;stop-color:#000000"
         id="rect20309-4-1-18"
         width="35.70116"
         height="5.1156726"
         x="36.338959"
         y="139.79189"
         ry="2.5578363" />
      <path
         id="rect20421-5-5"
         style="display:inline;fill:#000000;fill-opacity:1;stroke:#000000;stroke-width:0.81687;stroke-opacity:1;paint-order:fill markers stroke;stop-color:#000000"
         d="m 75.520422,118.3916 h -7.799035 c -2.67534,0 -4.829135,1.57365 -4.829135,3.52837 0,0 5.87484,3.38344 5.87484,13.01273 0,9.62929 -5.87484,13.01274 -5.87484,13.01274 -0.762482,1.87364 2.153795,3.52836 4.829135,3.52836 h 7.799035 c 2.67534,0 4.829134,-1.57365 4.829134,-3.52836 v -26.02547 c 0,-1.95472 -2.153794,-3.52837 -4.829134,-3.52837 z"
         sodipodi:nodetypes="ssszssssss" />
    </g>
    <g
       inkscape:groupmode="layer"
       id="layer4"
       inkscape:label="S"
       style="display:inline">
      <rect
         style="font-variation-settings:normal;display:inline;opacity:1;fill:#dd8942;fill-opacity:1;stroke:#181e35;stroke-width:0.97721;stroke-linecap:butt;stroke-linejoin:miter;stroke-miterlimit:4;stroke-dasharray:none;stroke-dashoffset:0;stroke-opacity:1;paint-order:fill markers stroke;stop-color:#000000;stop-opacity:1"
         id="rect20309"
         width="34.186935"
         height="5.135181"
         x="34.96241"
         y="80.413063"
         ry="2.5675905" />
      <rect
         style="font-variation-settings:normal;display:inline;fill:#dd8942;fill-opacity:1;stroke:#181e35;stroke-width:0.796417;stroke-linecap:butt;stroke-linejoin:miter;stroke-miterlimit:4;stroke-dasharray:none;stroke-dashoffset:0;stroke-opacity:1;paint-order:fill markers stroke;stop-color:#000000"
         id="rect20309-4"
         width="21.934855"
         height="5.3159776"
         x="34.485741"
         y="110.63919"
         ry="2.6579888" />
      <path
         id="rect20421"
         style="display:inline;opacity:1;fill:#d64042;stroke:#181e35;stroke-width:0.948507;paint-order:fill markers stroke;stop-color:#000000;stop-opacity:1"
         d="m 32.38796,76.057449 h 7.740709 c 2.655333,0 4.79302,2.137687 4.79302,4.793021 0,0 -5.830904,4.596157 -5.830904,17.67682 0,13.08066 5.830904,17.67682 5.830904,17.67682 0.75678,2.5452 -2.137687,4.79302 -4.79302,4.79302 H 32.38796 c -2.655333,0 -4.793021,-2.13769 -4.793021,-4.79302 V 80.85047 c 0,-2.655334 2.137688,-4.793021 4.793021,-4.793021 z"
         sodipodi:nodetypes="ssszssssss" />
      <rect
         style="font-variation-settings:normal;display:inline;fill:#dd8942;fill-opacity:1;stroke:#181e35;stroke-width:0.796417;stroke-linecap:butt;stroke-linejoin:miter;stroke-miterlimit:4;stroke-dasharray:none;stroke-dashoffset:0;stroke-opacity:1;paint-order:fill markers stroke;stop-color:#000000"
         id="rect20309-1"
         width="21.934855"
         height="5.3159776"
         x="50.59169"
         y="124.11453"
         ry="2.6579888" />
      <rect
         style="font-variation-settings:normal;display:inline;fill:#dd8942;fill-opacity:1;stroke:#181e35;stroke-width:0.996722;stroke-linecap:butt;stroke-linejoin:miter;stroke-miterlimit:4;stroke-dasharray:none;stroke-dashoffset:0;stroke-opacity:1;paint-order:fill markers stroke;stop-color:#000000"
         id="rect20309-4-1"
         width="35.70116"
         height="5.1156726"
         x="36.338959"
         y="139.79189"
         ry="2.5578363" />
      <path
         id="rect20421-5"
         style="display:inline;fill:#d64042;stroke:#181e35;stroke-width:0.81687;paint-order:fill markers stroke;stop-color:#000000"
         d="m 75.520422,118.3916 h -7.799035 c -2.67534,0 -4.829135,1.57365 -4.829135,3.52837 0,0 5.87484,3.38344 5.87484,13.01273 0,9.62929 -5.87484,13.01274 -5.87484,13.01274 -0.762482,1.87364 2.153795,3.52836 4.829135,3.52836 h 7.799035 c 2.67534,0 4.829134,-1.57365 4.829134,-3.52836 v -26.02547 c 0,-1.95472 -2.153794,-3.52837 -4.829134,-3.52837 z"
         sodipodi:nodetypes="ssszssssss" />
    </g>
    <g
       inkscape:groupmode="layer"
       id="layer5-3"
       inkscape:label="B-Shadow"
       style="display:inline;opacity:0.55;fill:#000000;fill-opacity:1;stroke:#000000;stroke-opacity:1;filter:url(#filter25431)"
       transform="matrix(0.87798391,0,0,1.0007183,17.065425,2.8470346)">
      <rect
         style="font-variation-settings:normal;display:inline;opacity:1;fill:#000000;fill-opacity:1;stroke:#000000;stroke-width:0.850094;stroke-linecap:butt;stroke-linejoin:miter;stroke-miterlimit:4;stroke-dasharray:none;stroke-dashoffset:0;stroke-opacity:1;paint-order:fill markers stroke;stop-color:#000000"
         id="rect20309-1-8-1"
         width="25.009312"
         height="5.3121338"
         x="125.29782"
         y="109.32719"
         ry="2.6560669" />
      <rect
         style="font-variation-settings:normal;display:inline;opacity:1;fill:#000000;fill-opacity:1;stroke:#000000;stroke-width:1.0639;stroke-linecap:butt;stroke-linejoin:miter;stroke-miterlimit:4;stroke-dasharray:none;stroke-dashoffset:0;stroke-opacity:1;paint-order:fill markers stroke;stop-color:#000000"
         id="rect20309-4-1-1-7"
         width="40.705147"
         height="5.1119738"
         x="107.86677"
         y="138.36465"
         ry="2.5559869" />
      <path
         id="rect20421-5-0-5"
         style="display:inline;opacity:1;fill:#000000;fill-opacity:1;stroke:#000000;stroke-width:1.01243;stroke-opacity:1;paint-order:fill markers stroke;stop-color:#000000"
         d="m 153.68688,105.06507 h -8.82567 c -3.02752,0 -5.46483,2.13613 -5.46483,4.78956 0,0 6.64818,4.59282 6.64818,17.66403 0,13.07121 -6.64818,17.66404 -6.64818,17.66404 -0.86285,2.54336 2.43731,4.78956 5.46483,4.78956 h 8.82567 c 3.02751,0 5.46482,-2.13615 5.46482,-4.78956 v -35.32807 c 0,-2.65343 -2.43731,-4.78956 -5.46482,-4.78956 z"
         sodipodi:nodetypes="ssszssssss" />
      <rect
         style="font-variation-settings:normal;display:inline;opacity:1;fill:#000000;fill-opacity:1;stroke:#000000;stroke-width:0.839092;stroke-linecap:butt;stroke-linejoin:miter;stroke-miterlimit:4;stroke-dasharray:none;stroke-dashoffset:0;stroke-opacity:1;paint-order:fill markers stroke;stop-color:#000000"
         id="rect20309-1-9-9"
         width="24.319132"
         height="5.3224316"
         x="107.98711"
         y="78.666504"
         ry="2.6612158" />
      <rect
         style="font-variation-settings:normal;display:inline;opacity:1;fill:#000000;fill-opacity:1;stroke:#000000;stroke-width:0.838707;stroke-linecap:butt;stroke-linejoin:miter;stroke-miterlimit:4;stroke-dasharray:none;stroke-dashoffset:0;stroke-opacity:1;paint-order:fill markers stroke;stop-color:#000000"
         id="rect20309-4-1-8-6"
         width="24.295061"
         height="5.3227944"
         x="107.571"
         y="93.965355"
         ry="2.6613972" />
      <rect
         style="font-variation-settings:normal;display:inline;opacity:1;fill:#000000;fill-opacity:1;stroke:#000000;stroke-width:0.852861;stroke-linecap:butt;stroke-linejoin:miter;stroke-miterlimit:4;stroke-dasharray:none;stroke-dashoffset:0;stroke-opacity:1;paint-order:fill markers stroke;stop-color:#000000"
         id="rect20309-4-1-8-3-2"
         width="22.072664"
         height="6.0581264"
         x="107.92436"
         y="-113.32156"
         ry="3.0290632"
         transform="rotate(90)" />
      <path
         id="rect20421-5-4-1"
         style="display:inline;opacity:1;fill:#000000;fill-opacity:1;stroke:#000000;stroke-width:0.813971;stroke-opacity:1;paint-order:fill markers stroke;stop-color:#000000"
         d="m 135.72783,74.577451 h -8.9196 c -3.05972,0 -5.52298,1.366202 -5.52298,3.063242 0,0 6.71894,2.937421 6.71894,11.297343 0,8.359917 -6.71894,11.297354 -6.71894,11.297354 -0.87204,1.62665 2.46326,3.06324 5.52298,3.06324 h 8.9196 c 3.05973,0 5.52299,-1.36621 5.52299,-3.06324 V 77.640693 c 0,-1.69704 -2.46326,-3.063242 -5.52299,-3.063242 z"
         sodipodi:nodetypes="ssszssssss" />
    </g>
    <g
       inkscape:groupmode="layer"
       id="layer5"
       inkscape:label="B"
       style="display:inline">
      <rect
         style="font-variation-settings:normal;display:inline;fill:#dd8942;fill-opacity:1;stroke:#181e35;stroke-width:0.796417;stroke-linecap:butt;stroke-linejoin:miter;stroke-miterlimit:4;stroke-dasharray:none;stroke-dashoffset:0;stroke-opacity:1;paint-order:fill markers stroke;stop-color:#000000"
         id="rect20309-1-8"
         width="21.934855"
         height="5.3159776"
         x="125.87879"
         y="111.20505"
         ry="2.6579888" />
      <rect
         style="font-variation-settings:normal;display:inline;fill:#dd8942;fill-opacity:1;stroke:#181e35;stroke-width:0.996722;stroke-linecap:butt;stroke-linejoin:miter;stroke-miterlimit:4;stroke-dasharray:none;stroke-dashoffset:0;stroke-opacity:1;paint-order:fill markers stroke;stop-color:#000000"
         id="rect20309-4-1-1"
         width="35.70116"
         height="5.1156726"
         x="110.59059"
         y="140.2635"
         ry="2.5578363" />
      <path
         id="rect20421-5-0"
         style="display:inline;fill:#d64042;stroke:#181e35;stroke-width:0.948507;paint-order:fill markers stroke;stop-color:#000000"
         d="m 150.77791,106.93984 h -7.74071 c -2.65533,0 -4.79302,2.13768 -4.79302,4.79302 0,0 5.83091,4.59615 5.83091,17.67682 0,13.08066 -5.83091,17.67682 -5.83091,17.67682 -0.75678,2.5452 2.13769,4.79302 4.79302,4.79302 h 7.74071 c 2.65534,0 4.79302,-2.13769 4.79302,-4.79302 v -35.35364 c 0,-2.65534 -2.13768,-4.79302 -4.79302,-4.79302 z"
         sodipodi:nodetypes="ssszssssss" />
      <rect
         style="font-variation-settings:normal;display:inline;fill:#dd8942;fill-opacity:1;stroke:#181e35;stroke-width:0.78611;stroke-linecap:butt;stroke-linejoin:miter;stroke-miterlimit:4;stroke-dasharray:none;stroke-dashoffset:0;stroke-opacity:1;paint-order:fill markers stroke;stop-color:#000000"
         id="rect20309-1-9"
         width="21.329519"
         height="5.3262825"
         x="110.69614"
         y="80.522171"
         ry="2.6631413" />
      <rect
         style="font-variation-settings:normal;display:inline;fill:#dd8942;fill-opacity:1;stroke:#181e35;stroke-width:0.785749;stroke-linecap:butt;stroke-linejoin:miter;stroke-miterlimit:4;stroke-dasharray:none;stroke-dashoffset:0;stroke-opacity:1;paint-order:fill markers stroke;stop-color:#000000"
         id="rect20309-4-1-8"
         width="21.308407"
         height="5.3266454"
         x="110.33117"
         y="95.8321"
         ry="2.6633227" />
      <rect
         style="font-variation-settings:normal;display:inline;fill:#dd8942;fill-opacity:1;stroke:#181e35;stroke-width:0.799009;stroke-linecap:butt;stroke-linejoin:miter;stroke-miterlimit:4;stroke-dasharray:none;stroke-dashoffset:0;stroke-opacity:1;paint-order:fill markers stroke;stop-color:#000000"
         id="rect20309-4-1-8-3"
         width="22.088634"
         height="5.3133855"
         x="109.80119"
         y="-115.37482"
         ry="2.6566927"
         transform="rotate(90)" />
      <path
         id="rect20421-5-4"
         style="display:inline;fill:#d64042;stroke:#181e35;stroke-width:0.762575;paint-order:fill markers stroke;stop-color:#000000"
         d="m 135.02662,76.430163 h -7.82309 c -2.68359,0 -4.84403,1.36719 -4.84403,3.065458 0,0 5.89296,2.939547 5.89296,11.305516 0,8.365966 -5.89296,11.305523 -5.89296,11.305523 -0.76484,1.62783 2.16044,3.06546 4.84403,3.06546 h 7.82309 c 2.68359,0 4.84403,-1.3672 4.84403,-3.06546 V 79.495621 c 0,-1.698268 -2.16044,-3.065458 -4.84403,-3.065458 z"
         sodipodi:nodetypes="ssszssssss" />
    </g>
  </g>
</svg>